<?xml version="1.0" encoding="utf-8"?>
<!-- Generator: Adobe Illustrator 22.1.0, SVG Export Plug-In . SVG Version: 6.00 Build 0)  -->
<svg version="1.1" id="Capa_1" xmlns="http://www.w3.org/2000/svg" xmlns:xlink="http://www.w3.org/1999/xlink" x="0px" y="0px"
	 viewBox="0 0 316 250" style="enable-background:new 0 0 316 250;" xml:space="preserve">
<style type="text/css">
	.st0{fill:#FFFFFF;}
</style>
<g>
	<path class="st0" d="M148,115.3l-11.7,38l-10.6-38h-22.1l0.3,1c0,0-2.2-1.9-13.4-2.1c-28.8,0-27,17-27,17s0,14.2,21,16.7
		c17.8,2.6,13.7,10.7,6.7,11.3c-7,0.6-8.4-6.8-8.4-6.8H63.6c0,0-2.9,19,26.1,19c25.9,0,27.5-12.6,28.7-15.9l5.7,15.9h22.3l20.5-56.1
		H148z M84.7,131c0-6.9,11.7-5.7,11.7,1.1h13.3l3.7,10.2C101.5,132.2,85.3,137.6,84.7,131z"/>
	<path class="st0" d="M228,164.1c-1.7-1.1-0.5-4.2-0.5-4.2l14.5-40l2.5-7.4c-15.8,1.3-26,2.6-38.4,2.8h-6.4l6.7-18.6c0,0-3.5,0-5,0
		c-5.3,8.2-23.9,19-33.1,19.6c-0.2,1.1-1.3,3.2-1.3,3.2H178c0,0-13.3,37.1-14.4,39.7c-0.9,2.1-0.6,5.5-0.6,5.5c0,5.5,5,6.7,6.6,6.7
		c1.6,0,3.8,0.5,8.4,0c12.2-1.2,21.3-13.6,21.3-13.6l-3.4-1.2c0,0-9.4,9.7-12.6,8.1c-1.1-0.7,0-5.2,0-5.2l14.5-40h8.3h0.3h9.7
		c6.2,0,5.5,3.6,4.4,6.3c0,0-12,31.7-12.9,33.7c-0.9,2.1-0.6,5.5-0.6,5.5c0,5.5,5.7,7.1,7.3,7.2c0.8,0,1.2,0.4,7.7,0
		c10.5-0.4,19.9-12.9,21.2-15.5l-2.7-1.8C240.6,154.8,231.2,165.7,228,164.1z"/>
	<path class="st0" d="M251.9,93.3c0,5-5.1,9-11.4,9c-6.3,0-11.4-4-11.4-9s5.1-9,11.4-9C246.8,84.3,251.9,88.3,251.9,93.3z"/>
	<path class="st0" d="M234,76.8c-21-70.5-56-35.6-84.1,32.9C154,95.2,181.7,28,205,31.1C225.4,33.9,234,76.8,234,76.8z"/>
	<g>
		<path class="st0" d="M73.4,187.3c-0.1-0.5-0.3-0.9-0.7-1.1c-0.4-0.2-0.9-0.3-1.4-0.3c-1.2,0-1.8,0.3-1.8,1c0,0.5,0.5,1,1.6,1.3
			c1.1,0.3,2.2,0.7,3.5,1c1.2,0.4,2.3,0.9,3.2,1.6c0.9,0.7,1.3,1.8,1.3,3.2c0,1.3-0.3,2.3-1,3.2c-0.6,0.9-1.5,1.5-2.7,2
			c-1.2,0.4-2.5,0.7-4,0.7c-1.4,0-2.7-0.3-3.8-0.8c-1.1-0.5-2-1.2-2.6-2.1c-0.6-0.9-1-1.8-1-2.9h5.2c0.1,0.6,0.4,1,0.9,1.4
			c0.4,0.3,1,0.5,1.5,0.5c0.7,0,1.3-0.1,1.7-0.3c0.4-0.2,0.6-0.5,0.6-0.9c0-0.5-0.5-1-1.6-1.3c-1.1-0.3-2.2-0.7-3.5-1
			c-1.2-0.3-2.3-0.9-3.1-1.7c-0.9-0.8-1.3-1.9-1.3-3.3c0-1.2,0.3-2.2,0.9-3c0.6-0.8,1.4-1.4,2.5-1.8c1.1-0.4,2.3-0.6,3.7-0.6
			c2.2,0,3.9,0.5,5,1.5c1.2,1,1.9,2.3,2.1,3.9H73.4z"/>
		<path class="st0" d="M85.5,199.5h-5l6.1-17.1h5.6l6.1,17.1h-5.5l-0.6-2.2h-5.5L85.5,199.5z M91.1,192.9l-1.8-5.4l-1.7,5.4
			L91.1,192.9z"/>
		<path class="st0" d="M105.4,182.4l6,9.3v-9.3h5.1v17h-4.7l-6.4-9.3l0,9.3h-5v-17H105.4z"/>
	</g>
	<g>
		<path class="st0" d="M133.3,199.5l-5.9-17.2h5l3.8,12.2l3.9-12.2h5l-6,17.2H133.3z"/>
		<path class="st0" d="M152.6,199.5h-5.3v-17.2h5.3V199.5z"/>
		<path class="st0" d="M167.1,188.7c-0.1-0.9-0.4-1.6-0.9-2c-0.5-0.5-1.2-0.7-2-0.7c-1,0-1.7,0.4-2.2,1.2c-0.5,0.8-0.8,2-0.8,3.6
			c0,1.4,0.2,2.5,0.7,3.3c0.5,0.8,1.3,1.2,2.6,1.2c0.8,0,1.5-0.3,1.9-0.8c0.4-0.5,0.7-1.2,0.8-2l5.1,1.4c0,0-0.4,1.2-1.1,2.3
			c-0.7,1-1.6,1.8-2.7,2.4c-1.1,0.5-2.4,0.8-3.9,0.8c-1.3,0-2.6-0.2-3.6-0.6c-1.1-0.4-2-1-2.8-1.7c-0.8-0.8-1.4-1.7-1.7-2.8
			c-0.4-1.1-0.6-2.3-0.6-3.6c0-1.3,0.2-2.5,0.6-3.6c0.4-1.1,1-2,1.7-2.8c0.7-0.8,1.6-1.4,2.6-1.8c1-0.4,2.1-0.6,3.2-0.6
			c1.7,0,3.1,0.3,4.3,0.8c1.2,0.5,2.1,1.3,2.8,2.3c0.7,1,1,2.4,1,2.4L167.1,188.7z"/>
		<path class="st0" d="M189,199.5h-14.5v-17.2h14.2v4h-8.4v2.5h8.3l0,4h-8.3v2.6h8.7V199.5z"/>
		<path class="st0" d="M197.1,182.3l6.3,9.4l-0.2-3.9v-5.5h5.3v17.1h-4.8l-6.4-9.3l0.2,3.9v5.4h-5.3v-17.1H197.1z"/>
		<path class="st0" d="M210.8,186.5v-4.1h15.9v4.1h-5.1v13H216v-13H210.8z"/>
		<path class="st0" d="M243.3,199.5h-14.2v-17.1H243v4h-8.3v2.5h8.2l0.1,4h-8.3v2.6h8.6V199.5z"/>
	</g>
	<g>
		<path class="st0" d="M64.9,205l1.7-0.8l0,3.5h1.6v1.4h-1.6v6.4c0,0.3,0.1,0.6,0.4,0.7c0.1,0.1,0.3,0.1,0.6,0.1c0.1,0,0.2,0,0.3,0
			c0.1,0,0.2,0,0.3,0v1.3c-0.2,0.1-0.4,0.1-0.6,0.1c-0.2,0-0.4,0-0.7,0c-0.8,0-1.3-0.2-1.6-0.6c-0.3-0.4-0.4-0.9-0.4-1.5v-6.5h-1.3
			v-1.4h1.3V205z"/>
		<path class="st0" d="M76,208c0.7,0.3,1.2,0.8,1.5,1.3c0.3,0.5,0.5,1.1,0.7,1.7c0.1,0.5,0.1,1.2,0.1,2.2h-7.2c0,1,0.3,1.8,0.7,2.4
			c0.4,0.6,1.1,0.9,2,0.9c0.9,0,1.5-0.3,2.1-0.9c0.3-0.3,0.5-0.7,0.6-1.2h1.6c0,0.4-0.2,0.8-0.4,1.2c-0.2,0.4-0.5,0.8-0.8,1.1
			c-0.5,0.5-1.1,0.8-1.9,1c-0.4,0.1-0.8,0.1-1.3,0.1c-1.2,0-2.3-0.4-3.1-1.3c-0.8-0.9-1.3-2.1-1.3-3.8c0-1.6,0.4-2.9,1.3-3.9
			c0.9-1,2-1.5,3.4-1.5C74.6,207.6,75.3,207.7,76,208z M76.6,211.9c-0.1-0.7-0.2-1.3-0.5-1.7c-0.5-0.8-1.2-1.2-2.3-1.2
			c-0.8,0-1.4,0.3-1.9,0.8c-0.5,0.6-0.8,1.2-0.8,2.1H76.6z"/>
		<path class="st0" d="M80.5,207.8h1.6v1.7c0.1-0.3,0.4-0.7,0.9-1.2c0.5-0.5,1.1-0.7,1.7-0.7c0,0,0.1,0,0.2,0c0.1,0,0.2,0,0.4,0v1.8
			c-0.1,0-0.2,0-0.3,0c-0.1,0-0.2,0-0.3,0c-0.8,0-1.5,0.3-1.9,0.8c-0.4,0.5-0.7,1.2-0.7,1.9v5.7h-1.7V207.8z"/>
		<path class="st0" d="M86.8,207.8h1.6v1.4c0.4-0.5,0.7-0.8,1.1-1.1c0.5-0.4,1.2-0.6,1.9-0.6c0.8,0,1.4,0.2,1.9,0.6
			c0.3,0.2,0.5,0.5,0.7,1c0.4-0.5,0.8-0.9,1.3-1.2c0.5-0.3,1.1-0.4,1.7-0.4c1.3,0,2.2,0.5,2.7,1.4c0.3,0.5,0.4,1.2,0.4,2.1v6.6h-1.7
			v-6.9c0-0.7-0.2-1.1-0.5-1.4c-0.3-0.2-0.7-0.4-1.2-0.4c-0.7,0-1.2,0.2-1.7,0.7c-0.5,0.4-0.7,1.2-0.7,2.2v5.7h-1.7v-6.4
			c0-0.7-0.1-1.2-0.2-1.5c-0.3-0.5-0.7-0.7-1.4-0.7c-0.6,0-1.2,0.2-1.7,0.7c-0.5,0.5-0.8,1.4-0.8,2.6v5.2h-1.7V207.8z"/>
		<path class="st0" d="M102.7,204.1h1.7v1.9h-1.7V204.1z M102.7,207.8h1.7v9.8h-1.7V207.8z"/>
		<path class="st0" d="M107,207.8h1.6v1.4c0.5-0.6,1-1,1.5-1.2c0.5-0.3,1.1-0.4,1.7-0.4c1.4,0,2.3,0.5,2.8,1.5
			c0.3,0.5,0.4,1.3,0.4,2.3v6.3h-1.7v-6.2c0-0.6-0.1-1.1-0.3-1.5c-0.3-0.6-0.8-0.9-1.6-0.9c-0.4,0-0.7,0-1,0.1
			c-0.5,0.1-0.9,0.4-1.2,0.8c-0.3,0.3-0.5,0.7-0.5,1c-0.1,0.3-0.1,0.8-0.1,1.5v5.2H107V207.8z"/>
		<path class="st0" d="M122.8,211.7c0.4,0,0.6-0.2,0.8-0.5c0.1-0.1,0.1-0.4,0.1-0.6c0-0.6-0.2-1-0.6-1.2c-0.4-0.3-1-0.4-1.7-0.4
			c-0.9,0-1.5,0.2-1.8,0.7c-0.2,0.3-0.3,0.6-0.4,1.2h-1.5c0-1.2,0.4-2.1,1.2-2.5c0.8-0.5,1.6-0.7,2.6-0.7c1.2,0,2.1,0.2,2.8,0.7
			c0.7,0.4,1.1,1.1,1.1,2.1v5.7c0,0.2,0,0.3,0.1,0.4c0.1,0.1,0.2,0.2,0.4,0.2c0.1,0,0.2,0,0.2,0c0.1,0,0.2,0,0.3,0v1.2
			c-0.3,0.1-0.5,0.1-0.6,0.1c-0.1,0-0.3,0-0.6,0c-0.6,0-1-0.2-1.2-0.6c-0.1-0.2-0.2-0.5-0.3-0.9c-0.3,0.4-0.8,0.8-1.5,1.2
			c-0.6,0.3-1.3,0.5-2.1,0.5c-0.9,0-1.7-0.3-2.2-0.8c-0.6-0.6-0.9-1.3-0.9-2.1c0-0.9,0.3-1.6,0.9-2.1c0.6-0.5,1.3-0.8,2.2-0.9
			L122.8,211.7z M119.3,216.2c0.4,0.3,0.8,0.4,1.2,0.4c0.6,0,1.1-0.1,1.7-0.4c0.9-0.4,1.4-1.2,1.4-2.2v-1.3
			c-0.2,0.1-0.5,0.2-0.8,0.3c-0.3,0.1-0.6,0.1-0.9,0.2l-1,0.1c-0.6,0.1-1.1,0.2-1.4,0.4c-0.5,0.3-0.8,0.7-0.8,1.4
			C118.8,215.5,119,215.9,119.3,216.2z"/>
		<path class="st0" d="M128.2,204.1h1.7v13.5h-1.7V204.1z"/>
		<path class="st0" d="M137.8,204.1h1.7v1.9h-1.7V204.1z M137.8,207.8h1.7v9.8h-1.7V207.8z"/>
		<path class="st0" d="M142.1,207.8h1.6v1.4c0.5-0.6,1-1,1.5-1.2c0.5-0.3,1.1-0.4,1.7-0.4c1.4,0,2.3,0.5,2.8,1.5
			c0.3,0.5,0.4,1.3,0.4,2.3v6.3h-1.7v-6.2c0-0.6-0.1-1.1-0.3-1.5c-0.3-0.6-0.8-0.9-1.6-0.9c-0.4,0-0.7,0-1,0.1
			c-0.5,0.1-0.9,0.4-1.2,0.8c-0.3,0.3-0.5,0.7-0.5,1c-0.1,0.3-0.1,0.8-0.1,1.5v5.2h-1.7V207.8z"/>
		<path class="st0" d="M153,205h1.7v2.8h1.6v1.4h-1.6v6.4c0,0.3,0.1,0.6,0.4,0.7c0.1,0.1,0.3,0.1,0.6,0.1c0.1,0,0.2,0,0.3,0
			c0.1,0,0.2,0,0.3,0v1.3c-0.2,0.1-0.4,0.1-0.6,0.1c-0.2,0-0.4,0-0.7,0c-0.8,0-1.3-0.2-1.6-0.6c-0.3-0.4-0.4-0.9-0.4-1.5v-6.5h-1.3
			v-1.4h1.3V205z"/>
		<path class="st0" d="M164.1,208c0.7,0.3,1.2,0.8,1.5,1.3c0.3,0.5,0.6,1.1,0.7,1.7c0.1,0.5,0.1,1.2,0.1,2.2h-7.2
			c0,1,0.3,1.8,0.7,2.4c0.4,0.6,1.1,0.9,2,0.9c0.9,0,1.5-0.3,2.1-0.9c0.3-0.3,0.5-0.7,0.6-1.2h1.6c0,0.4-0.2,0.8-0.4,1.2
			c-0.2,0.4-0.5,0.8-0.8,1.1c-0.5,0.5-1.1,0.8-1.9,1c-0.4,0.1-0.8,0.1-1.3,0.1c-1.2,0-2.3-0.4-3.1-1.3c-0.8-0.9-1.3-2.1-1.3-3.8
			c0-1.6,0.4-2.9,1.3-3.9c0.9-1,2-1.5,3.4-1.5C162.8,207.6,163.5,207.7,164.1,208z M164.7,211.9c-0.1-0.7-0.2-1.3-0.5-1.7
			c-0.5-0.8-1.2-1.2-2.3-1.2c-0.8,0-1.4,0.3-1.9,0.8c-0.5,0.6-0.8,1.2-0.8,2.1H164.7z"/>
		<path class="st0" d="M168.7,207.8h1.6v1.7c0.1-0.3,0.4-0.7,0.9-1.2c0.5-0.5,1.1-0.7,1.7-0.7c0,0,0.1,0,0.2,0c0.1,0,0.2,0,0.4,0
			v1.8c-0.1,0-0.2,0-0.3,0c-0.1,0-0.2,0-0.3,0c-0.8,0-1.5,0.3-1.9,0.8c-0.4,0.5-0.7,1.2-0.7,1.9v5.7h-1.7V207.8z"/>
		<path class="st0" d="M175,207.8h1.6v1.4c0.5-0.6,1-1,1.5-1.2c0.5-0.3,1.1-0.4,1.7-0.4c1.4,0,2.3,0.5,2.8,1.5
			c0.3,0.5,0.4,1.3,0.4,2.3v6.3h-1.7v-6.2c0-0.6-0.1-1.1-0.3-1.5c-0.3-0.6-0.8-0.9-1.6-0.9c-0.4,0-0.7,0-1,0.1
			c-0.5,0.1-0.9,0.4-1.2,0.8c-0.3,0.3-0.5,0.7-0.5,1c-0.1,0.3-0.1,0.8-0.1,1.5v5.2H175V207.8z"/>
		<path class="st0" d="M190.9,211.7c0.4,0,0.6-0.2,0.8-0.5c0.1-0.1,0.1-0.4,0.1-0.6c0-0.6-0.2-1-0.6-1.2c-0.4-0.3-1-0.4-1.7-0.4
			c-0.9,0-1.5,0.2-1.8,0.7c-0.2,0.3-0.3,0.6-0.4,1.2h-1.5c0-1.2,0.4-2.1,1.2-2.5c0.8-0.5,1.6-0.7,2.6-0.7c1.2,0,2.1,0.2,2.8,0.7
			c0.7,0.4,1.1,1.1,1.1,2.1v5.7c0,0.2,0,0.3,0.1,0.4c0.1,0.1,0.2,0.2,0.4,0.2c0.1,0,0.2,0,0.2,0c0.1,0,0.2,0,0.3,0v1.2
			c-0.3,0.1-0.5,0.1-0.6,0.1c-0.1,0-0.3,0-0.6,0c-0.6,0-1-0.2-1.2-0.6c-0.1-0.2-0.2-0.5-0.3-0.9c-0.3,0.4-0.8,0.8-1.5,1.2
			c-0.6,0.3-1.3,0.5-2.1,0.5c-0.9,0-1.7-0.3-2.2-0.8c-0.6-0.6-0.9-1.3-0.9-2.1c0-0.9,0.3-1.6,0.9-2.1c0.6-0.5,1.3-0.8,2.2-0.9
			L190.9,211.7z M187.4,216.2c0.4,0.3,0.8,0.4,1.2,0.4c0.6,0,1.1-0.1,1.7-0.4c0.9-0.4,1.4-1.2,1.4-2.2v-1.3
			c-0.2,0.1-0.5,0.2-0.8,0.3c-0.3,0.1-0.6,0.1-0.9,0.2l-1,0.1c-0.6,0.1-1.1,0.2-1.4,0.4c-0.5,0.3-0.8,0.7-0.8,1.4
			C186.9,215.5,187,215.9,187.4,216.2z"/>
		<path class="st0" d="M202.7,208.3c0.7,0.5,1.1,1.5,1.3,2.8h-1.6c-0.1-0.6-0.3-1.1-0.7-1.5c-0.4-0.4-0.9-0.6-1.7-0.6
			c-1.1,0-1.8,0.5-2.3,1.5c-0.3,0.7-0.4,1.5-0.4,2.5c0,1,0.2,1.8,0.6,2.5c0.4,0.7,1.1,1,2,1c0.7,0,1.2-0.2,1.6-0.6
			c0.4-0.4,0.7-1,0.8-1.7h1.6c-0.2,1.3-0.6,2.3-1.4,2.9c-0.7,0.6-1.7,0.9-2.8,0.9c-1.3,0-2.3-0.5-3.1-1.4c-0.8-0.9-1.2-2.1-1.2-3.5
			c0-1.7,0.4-3.1,1.3-4c0.8-1,1.9-1.4,3.2-1.4C201.1,207.5,202,207.8,202.7,208.3z"/>
		<path class="st0" d="M205.7,204.1h1.7v1.9h-1.7V204.1z M205.7,207.8h1.7v9.8h-1.7V207.8z"/>
		<path class="st0" d="M217.2,208.8c0.9,0.8,1.3,2.1,1.3,3.7c0,1.6-0.4,2.9-1.2,3.9c-0.8,1-2,1.6-3.6,1.6c-1.3,0-2.4-0.5-3.2-1.4
			c-0.8-0.9-1.2-2.2-1.2-3.7c0-1.7,0.4-3,1.3-4c0.8-1,2-1.5,3.4-1.5C215.2,207.5,216.3,207.9,217.2,208.8z M216.1,215.3
			c0.4-0.8,0.6-1.8,0.6-2.8c0-0.9-0.1-1.7-0.4-2.2c-0.5-0.9-1.3-1.4-2.4-1.4c-1,0-1.7,0.4-2.2,1.2c-0.5,0.8-0.7,1.7-0.7,2.8
			c0,1.1,0.2,1.9,0.7,2.6c0.5,0.7,1.2,1.1,2.2,1.1C215,216.6,215.7,216.2,216.1,215.3z"/>
		<path class="st0" d="M220.6,207.8h1.6v1.4c0.5-0.6,1-1,1.5-1.2c0.5-0.3,1.1-0.4,1.7-0.4c1.4,0,2.3,0.5,2.8,1.5
			c0.3,0.5,0.4,1.3,0.4,2.3v6.3H227v-6.2c0-0.6-0.1-1.1-0.3-1.5c-0.3-0.6-0.8-0.9-1.6-0.9c-0.4,0-0.7,0-1,0.1
			c-0.5,0.1-0.9,0.4-1.2,0.8c-0.3,0.3-0.5,0.7-0.5,1c-0.1,0.3-0.1,0.8-0.1,1.5v5.2h-1.7V207.8z"/>
		<path class="st0" d="M236.5,211.7c0.4,0,0.6-0.2,0.8-0.5c0.1-0.1,0.1-0.4,0.1-0.6c0-0.6-0.2-1-0.6-1.2c-0.4-0.3-1-0.4-1.7-0.4
			c-0.9,0-1.5,0.2-1.8,0.7c-0.2,0.3-0.3,0.6-0.4,1.2h-1.5c0-1.2,0.4-2.1,1.2-2.5c0.8-0.5,1.6-0.7,2.6-0.7c1.2,0,2.1,0.2,2.8,0.7
			c0.7,0.4,1.1,1.1,1.1,2.1v5.7c0,0.2,0,0.3,0.1,0.4c0.1,0.1,0.2,0.2,0.4,0.2c0.1,0,0.2,0,0.2,0c0.1,0,0.2,0,0.3,0v1.2
			c-0.3,0.1-0.5,0.1-0.6,0.1c-0.1,0-0.3,0-0.6,0c-0.6,0-1-0.2-1.2-0.6c-0.1-0.2-0.2-0.5-0.3-0.9c-0.3,0.4-0.8,0.8-1.5,1.2
			c-0.6,0.3-1.3,0.5-2.1,0.5c-0.9,0-1.7-0.3-2.2-0.8c-0.6-0.6-0.9-1.3-0.9-2.1c0-0.9,0.3-1.6,0.9-2.1c0.6-0.5,1.3-0.8,2.3-0.9
			L236.5,211.7z M233,216.2c0.4,0.3,0.8,0.4,1.2,0.4c0.6,0,1.1-0.1,1.7-0.4c0.9-0.4,1.4-1.2,1.4-2.2v-1.3c-0.2,0.1-0.5,0.2-0.8,0.3
			c-0.3,0.1-0.6,0.1-0.9,0.2l-1,0.1c-0.6,0.1-1.1,0.2-1.4,0.4c-0.5,0.3-0.8,0.7-0.8,1.4C232.5,215.5,232.6,215.9,233,216.2z"/>
		<path class="st0" d="M241.8,204.1h1.7v13.5h-1.7V204.1z"/>
	</g>
</g>
</svg>
